HIERARCHY
ROOT hips
{
  OFFSET 4.514983404067499e-9 10.105397940993303 1.318478203070619
  CHANNELS 6 Xposition Yposition Zposition Yrotation Xrotation Zrotation
  JOINT spine
  {
    OFFSET -3.891297943093837e-9 0.5743022203102706 0
    CHANNELS 3 Yrotation Xrotation Zrotation
    JOINT chest
    {
      OFFSET 0 1.2550312016247926 0
      CHANNELS 3 Yrotation Xrotation Zrotation
      JOINT upperChest
      {
        OFFSET 0 1.2059856050120283 0
        CHANNELS 3 Yrotation Xrotation Zrotation
        JOINT neck
        {
          OFFSET 0 1.5290392449770056 0
          CHANNELS 3 Yrotation Xrotation Zrotation
          JOINT head
          {
            OFFSET 0 0.8186276690878121 0
            CHANNELS 3 Yrotation Xrotation Zrotation
            JOINT leftEye
            {
              OFFSET 0.4540883942785781 -0.2684596961258452 0.6133497327236779
              CHANNELS 3 Yrotation Xrotation Zrotation
              End Site
              {
                OFFSET 0.4540883942785781 -0.2684596961258452 0.6133497327236779
              }
            }
            JOINT rightEye
            {
              OFFSET -0.4540889229417456 -0.26846010916843954 0.6133525398671689
              CHANNELS 3 Yrotation Xrotation Zrotation
              End Site
              {
                OFFSET -0.4540889229417456 -0.26846010916843954 0.6133525398671689
              }
            }
          }
        }
        JOINT leftShoulder
        {
          OFFSET 1.1700010731725468 -0.4176065950681176 0
          CHANNELS 3 Yrotation Xrotation Zrotation
          JOINT leftUpperArm
          {
            OFFSET 1.1803911524554955 0 0
            CHANNELS 3 Yrotation Xrotation Zrotation
            JOINT leftLowerArm
            {
              OFFSET 2.4406171707858904 0 0
              CHANNELS 3 Yrotation Xrotation Zrotation
              JOINT leftHand
              {
                OFFSET 2.3832177068873874 0 0
                CHANNELS 3 Yrotation Xrotation Zrotation
                JOINT leftIndexProximal
                {
                  OFFSET 0.7310175006235151 0.08192774217833776 0.20404791572985242
                  CHANNELS 3 Yrotation Xrotation Zrotation
                  JOINT leftIndexIntermediate
                  {
                    OFFSET 0.3688845439429529 -0.010662034455094949 -0.014226011560394963
                    CHANNELS 3 Yrotation Xrotation Zrotation
                    JOINT leftIndexDistal
                    {
                      OFFSET 0.2271119941018298 -0.007897656478952575 -0.007580683836364496
                      CHANNELS 3 Yrotation Xrotation Zrotation
                      End Site
                      {
                        OFFSET 0.2271119941018298 -0.007897656478952575 -0.007580683836364496
                      }
                    }
                  }
                }
                JOINT leftLittleProximal
                {
                  OFFSET 0.678269929308182 0.08192620621401336 -0.323876516389586
                  CHANNELS 3 Yrotation Xrotation Zrotation
                  JOINT leftLittleIntermediate
                  {
                    OFFSET 0.34904545821382604 -0.0000017106393073174075 8.629360392919949e-9
                    CHANNELS 3 Yrotation Xrotation Zrotation
                    JOINT leftLittleDistal
                    {
                      OFFSET 0.2011060672849896 0.0031247840072243793 0.0038660318003989197
                      CHANNELS 3 Yrotation Xrotation Zrotation
                      End Site
                      {
                        OFFSET 0.2011060672849896 0.0031247840072243793 0.0038660318003989197
                      }
                    }
                  }
                }
                JOINT leftMiddleProximal
                {
                  OFFSET 0.7368181082522638 0.0819260272939426 0.02272335773438093
                  CHANNELS 3 Yrotation Xrotation Zrotation
                  JOINT leftMiddleIntermediate
                  {
                    OFFSET 0.41136739116025356 -0.0000015892429323649537 5.27860346960507e-8
                    CHANNELS 3 Yrotation Xrotation Zrotation
                    JOINT leftMiddleDistal
                    {
                      OFFSET 0.25378150303820757 -0.0000015332469289752737 1.3442958385345705e-8
                      CHANNELS 3 Yrotation Xrotation Zrotation
                      End Site
                      {
                        OFFSET 0.25378150303820757 -0.0000015332469289752737 1.3442958385345705e-8
                      }
                    }
                  }
                }
                JOINT leftRingProximal
                {
                  OFFSET 0.7284256823094712 0.08192611199801392 -0.1508405069143483
                  CHANNELS 3 Yrotation Xrotation Zrotation
                  JOINT leftRingIntermediate
                  {
                    OFFSET 0.381593741461262 -0.0000016975471202052006 6.592486757883709e-8
                    CHANNELS 3 Yrotation Xrotation Zrotation
                    JOINT leftRingDistal
                    {
                      OFFSET 0.22014536669820362 -0.0027420652959939673 -0.005037497035641991
                      CHANNELS 3 Yrotation Xrotation Zrotation
                      End Site
                      {
                        OFFSET 0.22014536669820362 -0.0027420652959939673 -0.005037497035641991
                      }
                    }
                  }
                }
                JOINT leftThumbProximal
                {
                  OFFSET 0.10842212958334652 -0.16573713992498873 -0.07779936144556289
                  CHANNELS 3 Yrotation Xrotation Zrotation
                  JOINT leftThumbIntermediate
                  {
                    OFFSET 0.40720553822379024 -0.01751267955631075 0.31852684427382305
                    CHANNELS 3 Yrotation Xrotation Zrotation
                    JOINT leftThumbDistal
                    {
                      OFFSET 0.23412859218032667 -0.01859690713588802 0.2146635043319005
                      CHANNELS 3 Yrotation Xrotation Zrotation
                      End Site
                      {
                        OFFSET 0.23412859218032667 -0.01859690713588802 0.2146635043319005
                      }
                    }
                  }
                }
              }
            }
          }
        }
        JOINT rightShoulder
        {
          OFFSET -1.1700037144859516 -0.41760703856471126 0
          CHANNELS 3 Yrotation Xrotation Zrotation
          JOINT rightUpperArm
          {
            OFFSET -1.1803910289368023 0 0
            CHANNELS 3 Yrotation Xrotation Zrotation
            JOINT rightLowerArm
            {
              OFFSET -2.440617418222133 0 0
              CHANNELS 3 Yrotation Xrotation Zrotation
              JOINT rightHand
              {
                OFFSET -2.3832181162662343 0 0
                CHANNELS 3 Yrotation Xrotation Zrotation
                JOINT rightIndexProximal
                {
                  OFFSET -0.7310168852843362 0.08192787643494381 0.20404785424302163
                  CHANNELS 3 Yrotation Xrotation Zrotation
                  JOINT rightIndexIntermediate
                  {
                    OFFSET -0.3688846010723953 -0.01066191355993129 -0.014226020535245201
                    CHANNELS 3 Yrotation Xrotation Zrotation
                    JOINT rightIndexDistal
                    {
                      OFFSET -0.22711216276130997 -0.007898902439410271 -0.007580718044857868
                      CHANNELS 3 Yrotation Xrotation Zrotation
                      End Site
                      {
                        OFFSET -0.22711216276130997 -0.007898902439410271 -0.007580718044857868
                      }
                    }
                  }
                }
                JOINT rightLittleProximal
                {
                  OFFSET -0.6782685897119165 0.08192501740206293 -0.3238766118101876
                  CHANNELS 3 Yrotation Xrotation Zrotation
                  JOINT rightLittleIntermediate
                  {
                    OFFSET -0.34904682243945895 -2.664019085329983e-7 3.792712677253007e-8
                    CHANNELS 3 Yrotation Xrotation Zrotation
                    JOINT rightLittleDistal
                    {
                      OFFSET -0.20110609302945537 0.0031260842677420797 0.0038661724369087186
                      CHANNELS 3 Yrotation Xrotation Zrotation
                      End Site
                      {
                        OFFSET -0.20110609302945537 0.0031260842677420797 0.0038661724369087186
                      }
                    }
                  }
                }
                JOINT rightMiddleProximal
                {
                  OFFSET -0.7368168209984411 0.08192485183145659 0.022723294831187846
                  CHANNELS 3 Yrotation Xrotation Zrotation
                  JOINT rightMiddleIntermediate
                  {
                    OFFSET -0.4113687575187084 -9.03141548214137e-8 4.759541079313312e-8
                    CHANNELS 3 Yrotation Xrotation Zrotation
                    JOINT rightMiddleDistal
                    {
                      OFFSET -0.2537822083525749 -9.554208624251714e-8 -1.6364827826187422e-9
                      CHANNELS 3 Yrotation Xrotation Zrotation
                      End Site
                      {
                        OFFSET -0.2537822083525749 -9.554208624251714e-8 -1.6364827826187422e-9
                      }
                    }
                  }
                }
                JOINT rightRingProximal
                {
                  OFFSET -0.7284243957721679 0.08192492753028224 -0.15084062217729294
                  CHANNELS 3 Yrotation Xrotation Zrotation
                  JOINT rightRingIntermediate
                  {
                    OFFSET -0.381595106800805 -2.5662436442530634e-7 2.929475539925619e-8
                    CHANNELS 3 Yrotation Xrotation Zrotation
                    JOINT rightRingDistal
                    {
                      OFFSET -0.22014544912608125 -0.002738002524970362 -0.0050375115645966
                      CHANNELS 3 Yrotation Xrotation Zrotation
                      End Site
                      {
                        OFFSET -0.22014544912608125 -0.002738002524970362 -0.0050375115645966
                      }
                    }
                  }
                }
                JOINT rightThumbProximal
                {
                  OFFSET -0.10842026863657162 -0.16573778435706465 -0.07779917642461898
                  CHANNELS 3 Yrotation Xrotation Zrotation
                  JOINT rightThumbIntermediate
                  {
                    OFFSET -0.40720600760521597 -0.017512298079938038 0.3185267362029824
                    CHANNELS 3 Yrotation Xrotation Zrotation
                    JOINT rightThumbDistal
                    {
                      OFFSET -0.2341289751103648 -0.018594162598156494 0.21466399510514025
                      CHANNELS 3 Yrotation Xrotation Zrotation
                      End Site
                      {
                        OFFSET -0.2341289751103648 -0.018594162598156494 0.21466399510514025
                      }
                    }
                  }
                }
              }
            }
          }
        }
      }
    }
  }
  JOINT leftUpperLeg
  {
    OFFSET -0.8565189721517369 0.4427277044191169 0
    CHANNELS 3 Yrotation Xrotation Zrotation
    JOINT leftLowerLeg
    {
      OFFSET 0 -3.918486704769693 0
      CHANNELS 3 Yrotation Xrotation Zrotation
      JOINT leftFoot
      {
        OFFSET 6.174701361744139e-7 -0.055233446196002234 4.612027801972084
        CHANNELS 3 Yrotation Xrotation Zrotation
        JOINT leftToes
        {
          OFFSET -3.4372540951010944e-7 -0.705284859504459 1.2256624571888697
          CHANNELS 3 Yrotation Xrotation Zrotation
          End Site
          {
            OFFSET -3.4372540951010944e-7 -0.705284859504459 1.2256624571888697
          }
        }
      }
    }
  }
  JOINT rightUpperLeg
  {
    OFFSET 0.8565189732197466 0.44272769569168136 0
    CHANNELS 3 Yrotation Xrotation Zrotation
    JOINT rightLowerLeg
    {
      OFFSET 0 -3.918486692649319 0
      CHANNELS 3 Yrotation Xrotation Zrotation
      JOINT rightFoot
      {
        OFFSET 6.995136552362391e-7 -0.05523244834012664 4.612028499942008
        CHANNELS 3 Yrotation Xrotation Zrotation
        JOINT rightToes
        {
          OFFSET -4.2566694985479714e-7 -0.7052846587611067 1.22566236096697
          CHANNELS 3 Yrotation Xrotation Zrotation
          End Site
          {
            OFFSET -4.2566694985479714e-7 -0.7052846587611067 1.22566236096697
          }
        }
      }
    }
  }
}
MOTION
Frames: 4
Frame Time: 0.03333333333333333
-0.2756670117378235 -0.7182919992208419 0.10097648203372955 -6.684520735133473 -3.384940911818455 -4.599356867723808 -0.3053567169576446 6.354506554775215 1.8330315620092845 -0.5353859889396748 25.454269063783155 7.215209797737742 0 0 0 -32.825039672375226 -7.842208853688292 1.7869880481342884 -20.816353160763263 -14.929358579015199 9.831458077442482 0 0 0 0 0 0 7.880488961867531 1.0375994807459124 18.968552800281575 -19.447999831437983 -18.496716615668017 -69.53924204853524 -56.67134293648163 3.2040625897006727 0.6193962337418575 -38.132200221915966 -12.113588109471998 12.58005871673647 -4.114968483598601 -1.3815467813402116 -25.16161370202423 0.17427398536104655 -0.4275273053485968 -30.60841932183506 -1.281281483810888e-10 1.793762613445802e-24 1.6042536111691759e-12 2.279879472675108 18.02369806014179 -45.226666904594055 -4.2017487884804545 -0.840878499172476 -29.997669932109115 0.000002245999017412741 -0.000014039357969206363 -0.000012736258355773212 -1.575045106785125 8.233753203899685 -19.908347667856916 -1.6023478033916956 -0.4200646392863224 -23.352171266008835 -0.000005007422543841229 0.0000020744587267783142 6.467778169723021e-8 -0.1647536651230128 8.210115998349828 -30.57188033094217 -1.6580247403530421 -0.5898437307987797 -28.459009570183607 0.000004210547137952651 0.0000034014160625433384 5.61385101718028e-7 -19.197983078041563 -20.416528216407247 -6.587423124278514 19.46606923089025 4.381151142481689 6.791982086831174 0.000017802815807806854 0.000004620945151387756 0.000007173562871201013 -19.84815746139298 7.147616527189277 -13.521045354065976 16.07628371996729 1.5732029360082531 63.36436812353088 75.94409683440738 1.3419730137680472 -0.7173088165700345 -7.3553747547351875 11.426670314509426 0.2101750144208297 2.5302020931816442 0.7170449859277991 -14.490731576509424 1.1519952354539582 -0.9404980253348876 35.55240279453039 3.933694872703174e-10 3.1805546814635168e-15 -4.874754472204794e-12 -28.933405640418034 -17.271644448900894 5.411522142674399 1.9543361751734587 -0.1421284849845473 29.03886705076207 1.6628260911929426e-9 -3.1805543023118527e-15 -2.179830267765673e-11 -8.064445144823237 -8.510478627121978 -2.7733873324758713 2.308557419519895 -0.6183623698885666 28.29144334139583 1.215836204053751e-9 -3.180554491887685e-15 -1.6036856771618462e-11 -17.97668821475648 -8.664648383218163 -0.5353556041567821 0.5605172133276478 -0.3456271972124438 30.010803978410568 -0.0000047699469628829435 -7.265100354488819e-7 -0.0000012823225000317363 18.191840208594712 14.412294314835624 1.3837709481795184 -7.517947063149227 -1.1637500164741648 -5.8195323724749155 4.490318231231578e-8 -0.000008128970964187776 0.00000296293064704955 15.989976003521976 6.699348279231005 17.0875768657419 0.21190429634239163 26.938088994585012 -0.843552478791241 -0.05546023319103177 -21.958499966034474 -12.176181691592346 0.49649276295296524 -11.839008046907017 0.00023548216694420642 3.3926644929527066 -29.26359241236956 2.643022753956326 0.5568952172410598 29.23817163909256 1.4445233330514613 -6.598457458322128 1.4106038813069284 1.2245016879918191 -0.11968881736769513 0.2725710394461871 0.1317326222778899
-0.28973209857940674 -0.7182233346700606 0.09667778015136719 -6.428009050048877 -3.2768509079727415 -4.623453698788183 -0.28192192468169924 6.368854204639055 1.8155096250073472 -0.44194924652983375 25.507118595064366 7.156378298438466 0 0 0 -32.53239302579248 -7.679639929297129 1.2047902197052829 -20.856049897979037 -15.239448306182377 10.009325128293451 0 0 0 0 0 0 7.923835350538354 1.0305542738796565 19.028054667594954 -19.614493508814824 -18.597148993961728 -69.2685926664037 -57.35718721571382 3.280454394882013 0.6242701590008287 -37.05512617742849 -12.206853554593781 11.662448130458598 -4.135369922825863 -1.3528819213528276 -25.155517820645724 0.16890821550601826 -0.431242312208166 -30.708947872346332 -1.281281483810888e-10 1.793762613445802e-24 1.6042536111691759e-12 2.405905153626429 17.992427569251657 -44.66187428564949 -4.186205729491606 -0.8333481055811641 -29.90943243101064 0.000002245999017412741 -0.000014039357969206363 -0.000012736258355773212 -1.6968003468614052 8.236224749636103 -19.836432699215802 -1.6066294997797086 -0.4221923006846645 -23.394354760342 -0.000005007422543841229 0.0000020744587267783142 6.467778169723021e-8 -0.18502180171389854 8.212505447854213 -30.15096167683667 -1.654088564286839 -0.5880210412210667 -28.422166095811097 0.000004210547137952651 0.0000034014160625433384 5.61385101718028e-7 -19.276891247463976 -20.37255498533133 -6.633850956631958 19.454689510368688 4.412557856920956 6.8001958206057695 0.000017802815807806854 0.000004620945151387756 0.000007173562871201013 -19.72631826989213 7.164108839175043 -13.540763001424613 15.787858764445339 1.5477936394962635 63.318478882539786 75.8216533866903 1.3485904095642844 -0.7169351767088312 -7.318156925125342 11.541750961554971 0.4422317346031793 2.631641141205088 0.7391081183133514 -14.498169302132677 1.122572379015414 -0.9346202875327722 35.19921970190174 3.933694872703174e-10 3.1805546814635168e-15 -4.874754472204794e-12 -28.93194344401687 -17.496119676547174 4.639912002652836 1.9314022458681688 -0.13817524771055129 28.49858189645576 1.6628260911929426e-9 -3.1805543023118527e-15 -2.179830267765673e-11 -8.063710263131338 -8.51004439784226 -2.749083530157831 2.2733811721879613 -0.602511856193938 27.83041242782295 1.215836204053751e-9 -3.180554491887685e-15 -1.6036856771618462e-11 -17.82480218410651 -8.709508018383776 -0.7223991340349638 0.4970405987868965 -0.31738279805608977 28.84685583070087 -0.0000047699469628829435 -7.265100354488819e-7 -0.0000012823225000317363 17.820895500325243 14.675548546161014 1.3439911603159946 -7.7426267352125615 -1.5989555723848647 -6.1143035821851495 4.490318231231578e-8 -0.000008128970964187776 0.00000296293064704955 15.803701212106848 6.554958017277937 17.194100895591376 0.22083596820626833 26.8829225385548 -0.8391576846054303 -0.16880768340329394 -22.004866704696067 -12.279358237999954 0.4939710732777282 -11.86792382460412 0.007964212748388117 3.189842418147576 -29.348541198107014 2.7379141356443157 0.5526266660073841 29.203959752650444 1.4423724808647849 -6.702787278002898 1.4616450573384787 1.1611784474326188 -0.11956716850175186 0.26392168400011246 0.13213145148962105
-0.30795368552207947 -0.7179505838155684 0.08827006071805954 -6.047180996269754 -3.122673188437668 -4.638904751808769 -0.24095791440705217 6.395930403714356 1.7826449180000814 -0.2803486983278089 25.60770859339546 7.047191014588327 0 0 0 -32.024878834997644 -7.423696257124778 0.28607552074498926 -20.9090145958907 -15.768657690967 10.302923420760314 0 0 0 0 0 0 8.00664215912738 1.0171121297797043 19.1907292628939 -19.41780744325289 -18.734762037637715 -69.20668422692366 -58.86535853426224 3.386407052255774 0.6346480335474187 -34.683674583855336 -12.87828991895685 10.099190107367743 -4.199186914055841 -1.3360306206270338 -25.267462254169843 0.16411664794841563 -0.4339684624867933 -30.9525831196608 -1.281281483810888e-10 1.793762613445802e-24 1.6042536111691759e-12 2.579152797813181 18.051660549159834 -44.380857760259474 -4.16769426057467 -0.827568304659766 -29.806693611798483 0.000002245999017412741 -0.000014039357969206363 -0.000012736258355773212 -1.8027254510195607 8.228609160091029 -19.830723336297382 -1.635306138726607 -0.43544198480821217 -23.717229149795234 -0.000005007422543841229 0.0000020744587267783142 6.467778169723021e-8 -0.16361776284558324 8.248411895669934 -29.860270332046994 -1.6435333610851122 -0.5830072604912755 -28.297160840382976 0.000004210547137952651 0.0000034014160625433384 5.61385101718028e-7 -19.158040003828077 -20.222637617902215 -6.679380403151801 19.429261145737705 4.484385789093138 6.812307286786057 0.000017802815807806854 0.000004620945151387756 0.000007173562871201013 -19.576631277520192 7.179695188158996 -13.636638990327711 15.469064955262022 1.4876943148949195 63.21018258572405 75.60674508136645 1.3612558408780273 -0.7162480728972584 -7.067449221370574 11.528554010307158 0.7916570802226991 2.834187497056321 0.6731366574456021 -13.884397934672005 1.0752128775721201 -0.9229783012692009 34.776759384134984 3.933694872703174e-10 3.1805546814635168e-15 -4.874754472204794e-12 -29.117082728165865 -18.399877367898743 1.398515380656361 1.8464804070067782 -0.11230905920518854 27.197834323718176 1.6628260911929426e-9 -3.1805543023118527e-15 -2.179830267765673e-11 -7.904689902212319 -8.485474555627857 -2.4580985439239544 2.235855227923414 -0.5881301699133533 27.332904092750397 1.215836204053751e-9 -3.180554491887685e-15 -1.6036856771618462e-11 -16.89392810373878 -8.87518917595979 -1.292757658411721 0.43253903616456446 -0.28991288529134934 27.514426843969925 -0.0000047699469628829435 -7.265100354488819e-7 -0.0000012823225000317363 18.27950745023037 15.196461192503124 1.9207983268387008 -8.065273416782082 -2.241518598615754 -6.544654048605754 4.490318231231578e-8 -0.000008128970964187776 0.00000296293064704955 15.493971364230408 6.305426119788241 17.308853094717318 0.23360311141735907 26.87466204950707 -0.8327989500118245 -0.3071501476718304 -22.039368017611665 -12.422638788653913 0.4752675011575748 -11.894179766702727 0.03147759052155457 3.055046956787368 -29.476728971148138 2.801444376591784 0.5497162580242356 29.130698704318274 1.4402481433836272 -6.982251105419227 1.5652460899236686 1.1149438643412566 -0.12595781514164767 0.2535615420783278 0.13171619082330327
-0.3185425102710724 -0.7179887307882247 0.08226817846298218 -5.82015252690451 -3.040469743128897 -4.642443476820769 -0.20303516687497386 6.419337690826149 1.7632366039968392 -0.12506880367802148 25.69440367362833 6.993579133895941 0 0 0 -31.64840289822919 -7.251751042521755 -0.3396769857132901 -20.929184493629315 -16.077331233367538 10.478025785824613 0 0 0 0 0 0 8.084111121587284 1.0042151530994472 19.32951530491846 -19.05163262834567 -18.79215129174088 -69.36860022571065 -60.246512401782034 3.458845127557615 0.6437528440927405 -32.92397536443208 -13.306026691281797 8.72093302331325 -4.220401310871611 -1.3180664602495944 -25.319668549265568 0.161546386349444 -0.4341596599094153 -31.111458114885693 -1.281281483810888e-10 1.793762613445802e-24 1.6042536111691759e-12 2.545459530729614 18.037510841406938 -44.48494946460945 -4.161424513025867 -0.8305952491317862 -29.792232664846026 0.000002245999017412741 -0.000014039357969206363 -0.000012736258355773212 -1.6875296744427113 8.233565142761526 -19.818005042022683 -1.6368012460157768 -0.4364780691203432 -23.734634030056732 -0.000005007422543841229 0.0000020744587267783142 6.467778169723021e-8 -0.14367926096450293 8.254362830889553 -29.97671475922009 -1.6354951992121127 -0.5809015859818454 -28.201188585253124 0.000004210547137952651 0.0000034014160625433384 5.61385101718028e-7 -19.07856747176235 -20.123392519790215 -6.690868509135118 19.427187809000184 4.487810950318328 6.8227859587913935 0.000017802815807806854 0.000004620945151387756 0.000007173562871201013 -19.478632620850952 7.1868052980448205 -13.748759752306349 15.433898746672948 1.4431353811690277 63.04417653804363 75.33790322653759 1.3670019786499903 -0.7153682697904697 -6.8365271544153465 11.272364112902098 0.7858291021659348 2.8367922884216887 0.5834990595928966 -13.36378381338989 1.0417605096314104 -0.9137810171323915 34.47176264324384 3.933694872703174e-10 3.1805546814635168e-15 -4.874754472204794e-12 -29.217179012092124 -18.647592829428994 0.49203956592646014 1.8423053580391866 -0.11797361866462089 26.772007229999947 1.6628260911929426e-9 -3.1805543023118527e-15 -2.179830267765673e-11 -7.892989004547619 -8.480506738885856 -2.1395571145320504 2.21163176831698 -0.580886750902303 27.008960043437742 1.215836204053751e-9 -3.180554491887685e-15 -1.6036856771618462e-11 -16.47919337161503 -8.874414925296595 -1.105053272678009 0.40523399736872534 -0.27456923940125605 26.872367166694584 -0.0000047699469628829435 -7.265100354488819e-7 -0.0000012823225000317363 18.44842073461194 15.273246748441146 2.0976912052143746 -8.15290692909525 -2.456371460248922 -6.696979191594704 4.490318231231578e-8 -0.000008128970964187776 0.00000296293064704955 15.2697430463511 6.1483037555395414 17.357189205838317 0.24127481344728413 26.91071973835756 -0.8284968085986406 -0.3496750396754426 -22.039563286802974 -12.496866772674203 0.45467018383764185 -11.903483461833675 0.05110572350078412 3.011375577213642 -29.554469309365302 2.820930525722141 0.5500253329326661 29.09392165795679 1.439744694150196 -7.177057326467998 1.6320777601978758 1.1139313153523236 -0.13627973154353715 0.23793939499744898 0.13069051762814732
